<svg width="32" height="32" viewBox="0 0 32 32" fill="none" xmlns="http://www.w3.org/2000/svg">
<g clip-path="url(#clip0_7_18)">
<path d="M32 0H0V32H32V0Z" fill="#1A87DD"/>
<path d="M14.5863 9.55809L9.70859 21.3002C9.50307 21.7948 9.59347 22.3537 9.94439 22.7586C10.2954 23.1635 10.8362 23.3329 11.3557 23.2005L15.4589 22.1554V17.0382C15.4589 16.8027 15.65 16.6118 15.8857 16.6118C16.1215 16.6118 16.3126 16.8027 16.3126 17.0382V22.1554L20.4157 23.2005C20.9353 23.3329 21.4761 23.1635 21.8271 22.7586C22.1787 22.3529 22.268 21.7939 22.0629 21.3001L17.1852 9.55805C16.9631 9.02345 16.4652 8.69136 15.8857 8.69136C15.3063 8.69136 14.8083 9.02345 14.5863 9.55809Z" fill="white"/>
</g>
<defs>
<clipPath id="clip0_7_18">
<rect width="32" height="32" fill="white"/>
</clipPath>
</defs>
</svg>
