<svg width="180" height="60" viewBox="0 0 180 60" fill="none" xmlns="http://www.w3.org/2000/svg">
<g clip-path="url(#clip0_2_8)">
<g clip-path="url(#clip1_2_8)">
<path d="M60 -1H0V59H60V-1Z" fill="#1A87DD"/>
<path d="M27.3493 16.9214L18.2036 38.9378C17.8183 39.8653 17.9878 40.9132 18.6457 41.6724C19.3039 42.4316 20.3179 42.7491 21.292 42.501L28.9854 40.5413V30.9466C28.9854 30.5051 29.3437 30.1471 29.7858 30.1471C30.2278 30.1471 30.5862 30.505 30.5862 30.9466V40.5413L38.2795 42.501C39.2537 42.7491 40.2677 42.4316 40.9258 41.6724C41.5851 40.9116 41.7525 39.8636 41.3679 38.9377L32.2222 16.9213C31.8059 15.919 30.8722 15.2963 29.7858 15.2963C28.6993 15.2963 27.7657 15.919 27.3493 16.9214Z" fill="white"/>
</g>
<path d="M80.824 25.896L84.04 35.568H84.16L87.52 25.176L86.056 25.08V23.04H91.576V24.984L90.784 25.056C90.576 25.072 90.424 25.136 90.328 25.248C90.232 25.344 90.136 25.52 90.04 25.776L85.504 39H82.384L77.488 25.152L76.12 25.08V23.04H82.312V24.984L81.52 25.056C81.024 25.088 80.776 25.28 80.776 25.632C80.776 25.712 80.792 25.8 80.824 25.896ZM98.5191 26.568C99.7191 26.568 100.671 26.864 101.375 27.456C102.079 28.032 102.431 28.848 102.431 29.904C102.431 30.608 102.279 31.232 101.975 31.776C101.671 32.304 101.295 32.72 100.847 33.024C100.399 33.328 99.8551 33.576 99.2151 33.768C98.1431 34.088 96.9351 34.248 95.5911 34.248C95.6391 35.096 95.9031 35.784 96.3831 36.312C96.8631 36.824 97.5991 37.08 98.5911 37.08C99.5831 37.08 100.575 36.728 101.567 36.024L102.479 37.968C102.159 38.256 101.615 38.552 100.847 38.856C100.095 39.16 99.2311 39.312 98.2551 39.312C96.3031 39.312 94.8711 38.776 93.9591 37.704C93.0471 36.616 92.5911 35.128 92.5911 33.24C92.5911 31.352 93.1111 29.768 94.1511 28.488C95.1911 27.208 96.6471 26.568 98.5191 26.568ZM97.4151 32.064C98.0071 31.952 98.5511 31.72 99.0471 31.368C99.5431 31 99.7911 30.568 99.7911 30.072C99.7911 29.096 99.3111 28.608 98.3511 28.608C97.4551 28.608 96.7671 28.968 96.2871 29.688C95.8071 30.392 95.5431 31.24 95.4951 32.232C96.1991 32.216 96.8391 32.16 97.4151 32.064ZM105.608 36.312V29.664C105.608 29.408 105.56 29.232 105.464 29.136C105.384 29.024 105.232 28.96 105.008 28.944L104 28.872V26.928H108.056V28.728C108.344 28.104 108.792 27.592 109.4 27.192C110.008 26.776 110.704 26.568 111.488 26.568C112.288 26.568 113.048 26.744 113.768 27.096V30.672L111.536 30.84V29.736C111.536 29.416 111.456 29.216 111.296 29.136C111.12 29.056 110.904 29.016 110.648 29.016C110.008 29.016 109.48 29.248 109.064 29.712C108.664 30.16 108.464 30.736 108.464 31.44V37.008L110.552 37.104V39H104.12V37.176L104.912 37.104C105.152 37.072 105.328 37.008 105.44 36.912C105.552 36.8 105.608 36.6 105.608 36.312ZM117.87 24.384H119.43V26.928H122.622L122.382 28.944H119.43V35.256C119.43 35.96 119.558 36.456 119.814 36.744C120.07 37.016 120.462 37.152 120.99 37.152C121.534 37.152 122.078 36.984 122.622 36.648L123.342 38.496C122.542 39.056 121.526 39.336 120.294 39.336C119.574 39.336 118.966 39.24 118.47 39.048C117.974 38.872 117.606 38.672 117.366 38.448C117.126 38.224 116.942 37.896 116.814 37.464C116.686 37.032 116.614 36.696 116.598 36.456C116.582 36.2 116.574 35.832 116.574 35.352V28.944H114.87L115.11 27.192C115.862 27.128 116.43 26.864 116.814 26.4C117.198 25.92 117.55 25.248 117.87 24.384ZM130.277 26.568C131.477 26.568 132.429 26.864 133.133 27.456C133.837 28.032 134.189 28.848 134.189 29.904C134.189 30.608 134.037 31.232 133.733 31.776C133.429 32.304 133.053 32.72 132.605 33.024C132.157 33.328 131.613 33.576 130.973 33.768C129.901 34.088 128.693 34.248 127.349 34.248C127.397 35.096 127.661 35.784 128.141 36.312C128.621 36.824 129.357 37.08 130.349 37.08C131.341 37.08 132.333 36.728 133.325 36.024L134.237 37.968C133.917 38.256 133.373 38.552 132.605 38.856C131.853 39.16 130.989 39.312 130.013 39.312C128.061 39.312 126.629 38.776 125.717 37.704C124.805 36.616 124.349 35.128 124.349 33.24C124.349 31.352 124.869 29.768 125.909 28.488C126.949 27.208 128.405 26.568 130.277 26.568ZM129.173 32.064C129.765 31.952 130.309 31.72 130.805 31.368C131.301 31 131.549 30.568 131.549 30.072C131.549 29.096 131.069 28.608 130.109 28.608C129.213 28.608 128.525 28.968 128.045 29.688C127.565 30.392 127.301 31.24 127.253 32.232C127.957 32.216 128.597 32.16 129.173 32.064ZM142.742 36.456L141.278 34.536L139.286 37.008L140.414 37.08V39H135.422V37.104L136.166 37.032C136.534 36.984 136.854 36.792 137.126 36.456L139.886 33L136.934 28.92L135.71 28.776V26.928H141.302V28.824L140.606 28.872C140.414 28.888 140.286 28.96 140.222 29.088C140.174 29.216 140.206 29.352 140.318 29.496L141.686 31.32L143.534 28.92L142.55 28.848V26.928H147.422V28.8L146.702 28.848C146.366 28.864 146.046 29.064 145.742 29.448L143.102 32.784L146.246 36.96L147.47 37.104V39H141.758V37.104L142.502 37.056C142.71 37.04 142.83 36.976 142.862 36.864C142.91 36.736 142.87 36.6 142.742 36.456Z" fill="url(#paint0_linear_2_8)"/>
</g>
<rect x="0.5" y="0.5" width="179" height="59" stroke="#1A87DD"/>
<defs>
<linearGradient id="paint0_linear_2_8" x1="76" y1="27.6667" x2="188.907" y2="41.4562" gradientUnits="userSpaceOnUse">
<stop stop-color="white"/>
<stop offset="0.776047" stop-color="#D8DBE0"/>
</linearGradient>
<clipPath id="clip0_2_8">
<rect width="180" height="60" fill="white"/>
</clipPath>
<clipPath id="clip1_2_8">
<rect width="60" height="60" fill="white" transform="translate(0 -1)"/>
</clipPath>
</defs>
</svg>
