<svg width="197" height="80" viewBox="0 0 197 80" fill="none" xmlns="http://www.w3.org/2000/svg">
<g clip-path="url(#clip0_2_8)">
<g clip-path="url(#clip1_2_8)">
<path d="M80 -1H0V80H80V-1Z" fill="#1A87DD"/>
<path d="M36.4657 23.1939L24.2715 52.916C23.7577 54.1681 23.9837 55.5828 24.861 56.6077C25.7385 57.6327 27.0905 58.0613 28.3893 57.7263L38.6472 55.0808V42.1279C38.6472 41.5319 39.125 41.0486 39.7144 41.0486C40.3037 41.0486 40.7816 41.5318 40.7816 42.1279V55.0808L51.0394 57.7263C52.3383 58.0613 53.6903 57.6327 54.5677 56.6077C55.4468 55.5807 55.67 54.1659 55.1572 52.9159L42.963 23.1938C42.4079 21.8406 41.163 21 39.7144 21C38.2658 21 37.0209 21.8406 36.4657 23.1939Z" fill="white"/>
</g>
<path d="M96.432 35.528L100.72 48.424H100.88L105.36 34.568L103.408 34.44V31.72H110.768V34.312L109.712 34.408C109.435 34.4293 109.232 34.5147 109.104 34.664C108.976 34.792 108.848 35.0267 108.72 35.368L102.672 53H98.512L91.984 34.536L90.16 34.44V31.72H98.416V34.312L97.36 34.408C96.6987 34.4507 96.368 34.7067 96.368 35.176C96.368 35.2827 96.3893 35.4 96.432 35.528ZM120.026 36.424C121.626 36.424 122.895 36.8187 123.834 37.608C124.772 38.376 125.242 39.464 125.242 40.872C125.242 41.8107 125.039 42.6427 124.634 43.368C124.228 44.072 123.727 44.6267 123.13 45.032C122.532 45.4373 121.807 45.768 120.954 46.024C119.524 46.4507 117.914 46.664 116.122 46.664C116.186 47.7947 116.538 48.712 117.178 49.416C117.818 50.0987 118.799 50.44 120.122 50.44C121.444 50.44 122.767 49.9707 124.09 49.032L125.306 51.624C124.879 52.008 124.154 52.4027 123.13 52.808C122.127 53.2133 120.975 53.416 119.674 53.416C117.071 53.416 115.162 52.7013 113.946 51.272C112.73 49.8213 112.122 47.8373 112.122 45.32C112.122 42.8027 112.815 40.6907 114.202 38.984C115.588 37.2773 117.53 36.424 120.026 36.424ZM118.554 43.752C119.343 43.6027 120.068 43.2933 120.73 42.824C121.391 42.3333 121.722 41.7573 121.722 41.096C121.722 39.7947 121.082 39.144 119.802 39.144C118.607 39.144 117.69 39.624 117.05 40.584C116.41 41.5227 116.058 42.6533 115.994 43.976C116.932 43.9547 117.786 43.88 118.554 43.752ZM129.478 49.416V40.552C129.478 40.2107 129.414 39.976 129.286 39.848C129.179 39.6987 128.976 39.6133 128.678 39.592L127.334 39.496V36.904H132.742V39.304C133.126 38.472 133.723 37.7893 134.534 37.256C135.344 36.7013 136.272 36.424 137.318 36.424C138.384 36.424 139.398 36.6587 140.358 37.128V41.896L137.382 42.12V40.648C137.382 40.2213 137.275 39.9547 137.062 39.848C136.827 39.7413 136.539 39.688 136.198 39.688C135.344 39.688 134.64 39.9973 134.086 40.616C133.552 41.2133 133.286 41.9813 133.286 42.92V50.344L136.07 50.472V53H127.493V50.568L128.549 50.472C128.87 50.4293 129.104 50.344 129.254 50.216C129.403 50.0667 129.478 49.8 129.478 49.416ZM145.827 33.512H147.907V36.904H152.163L151.843 39.592H147.907V48.008C147.907 48.9467 148.077 49.608 148.419 49.992C148.76 50.3547 149.283 50.536 149.987 50.536C150.712 50.536 151.437 50.312 152.163 49.864L153.123 52.328C152.056 53.0747 150.701 53.448 149.059 53.448C148.099 53.448 147.288 53.32 146.627 53.064C145.965 52.8293 145.475 52.5627 145.155 52.264C144.835 51.9653 144.589 51.528 144.419 50.952C144.248 50.376 144.152 49.928 144.131 49.608C144.109 49.2667 144.099 48.776 144.099 48.136V39.592H141.827L142.147 37.256C143.149 37.1707 143.907 36.8187 144.419 36.2C144.931 35.56 145.4 34.664 145.827 33.512ZM162.369 36.424C163.969 36.424 165.239 36.8187 166.177 37.608C167.116 38.376 167.585 39.464 167.585 40.872C167.585 41.8107 167.383 42.6427 166.977 43.368C166.572 44.072 166.071 44.6267 165.473 45.032C164.876 45.4373 164.151 45.768 163.297 46.024C161.868 46.4507 160.257 46.664 158.465 46.664C158.529 47.7947 158.881 48.712 159.521 49.416C160.161 50.0987 161.143 50.44 162.465 50.44C163.788 50.44 165.111 49.9707 166.433 49.032L167.649 51.624C167.223 52.008 166.497 52.4027 165.473 52.808C164.471 53.2133 163.319 53.416 162.017 53.416C159.415 53.416 157.505 52.7013 156.289 51.272C155.073 49.8213 154.465 47.8373 154.465 45.32C154.465 42.8027 155.159 40.6907 156.545 38.984C157.932 37.2773 159.873 36.424 162.369 36.424ZM160.897 43.752C161.687 43.6027 162.412 43.2933 163.073 42.824C163.735 42.3333 164.065 41.7573 164.065 41.096C164.065 39.7947 163.425 39.144 162.145 39.144C160.951 39.144 160.033 39.624 159.393 40.584C158.753 41.5227 158.401 42.6533 158.337 43.976C159.276 43.9547 160.129 43.88 160.897 43.752ZM178.989 49.608L177.037 47.048L174.381 50.344L175.885 50.44V53H169.229V50.472L170.221 50.376C170.712 50.312 171.139 50.056 171.501 49.608L175.181 45L171.245 39.56L169.613 39.368V36.904H177.069V39.432L176.141 39.496C175.885 39.5173 175.715 39.6133 175.629 39.784C175.565 39.9547 175.608 40.136 175.757 40.328L177.581 42.76L180.045 39.56L178.733 39.464V36.904H185.229V39.4L184.269 39.464C183.821 39.4853 183.395 39.752 182.989 40.264L179.469 44.712L183.661 50.28L185.293 50.472V53H177.677V50.472L178.669 50.408C178.947 50.3867 179.107 50.3013 179.149 50.152C179.213 49.9813 179.16 49.8 178.989 49.608Z" fill="url(#paint0_linear_2_8)"/>
</g>
<rect x="0.5" y="0.5" width="196" height="79" stroke="#1A87DD"/>
<defs>
<linearGradient id="paint0_linear_2_8" x1="90" y1="37.2222" x2="292.782" y2="73.6343" gradientUnits="userSpaceOnUse">
<stop stop-color="white"/>
<stop offset="0.776047" stop-color="#D8DBE0"/>
</linearGradient>
<clipPath id="clip0_2_8">
<rect width="197" height="80" fill="white"/>
</clipPath>
<clipPath id="clip1_2_8">
<rect width="80" height="81" fill="white" transform="translate(0 -1)"/>
</clipPath>
</defs>
</svg>
