<svg width="103" height="41" viewBox="0 0 103 41" fill="none" xmlns="http://www.w3.org/2000/svg">
<g clip-path="url(#clip0_3_12)">
<g clip-path="url(#clip1_3_12)">
<path d="M41 0H0V41H41V0Z" fill="#1A87DD"/>
<path d="M18.6887 12.2463L12.4391 27.2908C12.1758 27.9246 12.2916 28.6407 12.7413 29.1595C13.191 29.6783 13.8839 29.8952 14.5495 29.7257L19.8067 28.3866V21.8302C19.8067 21.5285 20.0516 21.2839 20.3536 21.2839C20.6556 21.2839 20.9006 21.5284 20.9006 21.8302V28.3866L26.1577 29.7257C26.8234 29.8952 27.5163 29.6783 27.9659 29.1595C28.4165 28.6396 28.5309 27.9235 28.2681 27.2908L22.0185 12.2462C21.734 11.5613 21.096 11.1358 20.3536 11.1358C19.6112 11.1358 18.9732 11.5613 18.6887 12.2463Z" fill="white"/>
</g>
<path d="M52.814 18.356L54.69 23.998H54.76L56.72 17.936L55.866 17.88V16.69H59.086V17.824L58.624 17.866C58.5027 17.8753 58.414 17.9127 58.358 17.978C58.302 18.034 58.246 18.1367 58.19 18.286L55.544 26H53.724L50.868 17.922L50.07 17.88V16.69H53.682V17.824L53.22 17.866C52.9307 17.8847 52.786 17.9967 52.786 18.202C52.786 18.2487 52.7953 18.3 52.814 18.356ZM63.1362 18.748C63.8362 18.748 64.3915 18.9207 64.8022 19.266C65.2128 19.602 65.4182 20.078 65.4182 20.694C65.4182 21.1047 65.3295 21.4687 65.1522 21.786C64.9748 22.094 64.7555 22.3367 64.4942 22.514C64.2328 22.6913 63.9155 22.836 63.5422 22.948C62.9168 23.1347 62.2122 23.228 61.4282 23.228C61.4562 23.7227 61.6102 24.124 61.8902 24.432C62.1702 24.7307 62.5995 24.88 63.1782 24.88C63.7568 24.88 64.3355 24.6747 64.9142 24.264L65.4462 25.398C65.2595 25.566 64.9422 25.7387 64.4942 25.916C64.0555 26.0933 63.5515 26.182 62.9822 26.182C61.8435 26.182 61.0082 25.8693 60.4762 25.244C59.9442 24.6093 59.6782 23.7413 59.6782 22.64C59.6782 21.5387 59.9815 20.6147 60.5882 19.868C61.1948 19.1213 62.0442 18.748 63.1362 18.748ZM62.4922 21.954C62.8375 21.8887 63.1548 21.7533 63.4442 21.548C63.7335 21.3333 63.8782 21.0813 63.8782 20.792C63.8782 20.2227 63.5982 19.938 63.0382 19.938C62.5155 19.938 62.1142 20.148 61.8342 20.568C61.5542 20.9787 61.4002 21.4733 61.3722 22.052C61.7828 22.0427 62.1562 22.01 62.4922 21.954ZM67.2714 24.432V20.554C67.2714 20.4047 67.2434 20.302 67.1874 20.246C67.1407 20.1807 67.0521 20.1433 66.9214 20.134L66.3334 20.092V18.958H68.6994V20.008C68.8674 19.644 69.1287 19.3453 69.4834 19.112C69.8381 18.8693 70.2441 18.748 70.7014 18.748C71.1681 18.748 71.6114 18.8507 72.0314 19.056V21.142L70.7294 21.24V20.596C70.7294 20.4093 70.6827 20.2927 70.5894 20.246C70.4867 20.1993 70.3607 20.176 70.2114 20.176C69.8381 20.176 69.5301 20.3113 69.2874 20.582C69.0541 20.8433 68.9374 21.1793 68.9374 21.59V24.838L70.1554 24.894V26H66.4034V24.936L66.8654 24.894C67.0054 24.8753 67.1081 24.838 67.1734 24.782C67.2387 24.7167 67.2714 24.6 67.2714 24.432ZM74.4242 17.474H75.3342V18.958H77.1962L77.0562 20.134H75.3342V23.816C75.3342 24.2267 75.4089 24.516 75.5582 24.684C75.7075 24.8427 75.9362 24.922 76.2442 24.922C76.5615 24.922 76.8789 24.824 77.1962 24.628L77.6162 25.706C77.1495 26.0327 76.5569 26.196 75.8382 26.196C75.4182 26.196 75.0635 26.14 74.7742 26.028C74.4849 25.9253 74.2702 25.8087 74.1302 25.678C73.9902 25.5473 73.8829 25.356 73.8082 25.104C73.7335 24.852 73.6915 24.656 73.6822 24.516C73.6729 24.3667 73.6682 24.152 73.6682 23.872V20.134H72.6742L72.8142 19.112C73.2529 19.0747 73.5842 18.9207 73.8082 18.65C74.0322 18.37 74.2375 17.978 74.4242 17.474ZM81.6615 18.748C82.3615 18.748 82.9169 18.9207 83.3275 19.266C83.7382 19.602 83.9435 20.078 83.9435 20.694C83.9435 21.1047 83.8549 21.4687 83.6775 21.786C83.5002 22.094 83.2809 22.3367 83.0195 22.514C82.7582 22.6913 82.4409 22.836 82.0675 22.948C81.4422 23.1347 80.7375 23.228 79.9535 23.228C79.9815 23.7227 80.1355 24.124 80.4155 24.432C80.6955 24.7307 81.1249 24.88 81.7035 24.88C82.2822 24.88 82.8609 24.6747 83.4395 24.264L83.9715 25.398C83.7849 25.566 83.4675 25.7387 83.0195 25.916C82.5809 26.0933 82.0769 26.182 81.5075 26.182C80.3689 26.182 79.5335 25.8693 79.0015 25.244C78.4695 24.6093 78.2035 23.7413 78.2035 22.64C78.2035 21.5387 78.5069 20.6147 79.1135 19.868C79.7202 19.1213 80.5695 18.748 81.6615 18.748ZM81.0175 21.954C81.3629 21.8887 81.6802 21.7533 81.9695 21.548C82.2589 21.3333 82.4035 21.0813 82.4035 20.792C82.4035 20.2227 82.1235 19.938 81.5635 19.938C81.0409 19.938 80.6395 20.148 80.3595 20.568C80.0795 20.9787 79.9255 21.4733 79.8975 22.052C80.3082 22.0427 80.6815 22.01 81.0175 21.954ZM88.9328 24.516L88.0788 23.396L86.9168 24.838L87.5748 24.88V26H84.6628V24.894L85.0968 24.852C85.3115 24.824 85.4981 24.712 85.6568 24.516L87.2668 22.5L85.5448 20.12L84.8308 20.036V18.958H88.0928V20.064L87.6868 20.092C87.5748 20.1013 87.5001 20.1433 87.4628 20.218C87.4348 20.2927 87.4535 20.372 87.5188 20.456L88.3168 21.52L89.3948 20.12L88.8208 20.078V18.958H91.6628V20.05L91.2428 20.078C91.0468 20.0873 90.8601 20.204 90.6828 20.428L89.1428 22.374L90.9768 24.81L91.6908 24.894V26H88.3588V24.894L88.7928 24.866C88.9141 24.8567 88.9841 24.8193 89.0028 24.754C89.0308 24.6793 89.0075 24.6 88.9328 24.516Z" fill="url(#paint0_linear_3_12)"/>
</g>
<defs>
<linearGradient id="paint0_linear_3_12" x1="50" y1="19.4444" x2="159.657" y2="42.7052" gradientUnits="userSpaceOnUse">
<stop stop-color="#1A87DD"/>
<stop offset="0.776047" stop-color="#2064DE"/>
</linearGradient>
<clipPath id="clip0_3_12">
<rect width="103" height="41" fill="white"/>
</clipPath>
<clipPath id="clip1_3_12">
<rect width="41" height="41" fill="white"/>
</clipPath>
</defs>
</svg>
